<svg width="16" height="19" viewBox="0 0 16 19" fill="none" xmlns="http://www.w3.org/2000/svg">
<path d="M12.3333 15.9323V14.6129C12.3333 13.913 12.1086 13.2418 11.7085 12.7469C11.3084 12.252 10.7658 11.974 10.2 11.974H6.46668C5.90088 11.974 5.35826 12.252 4.95818 12.7469C4.5581 13.2418 4.33334 13.913 4.33334 14.6129V15.9323" stroke="white" stroke-linecap="round" stroke-linejoin="round"/>
<path d="M8.33334 9.59897C9.43791 9.59897 10.3333 8.53564 10.3333 7.22397C10.3333 5.91229 9.43791 4.84897 8.33334 4.84897C7.22877 4.84897 6.33334 5.91229 6.33334 7.22397C6.33334 8.53564 7.22877 9.59897 8.33334 9.59897Z" stroke="white" stroke-linecap="round" stroke-linejoin="round"/>
<path d="M8.33332 18.3073C12.0152 18.3073 15 14.7629 15 10.3906C15 6.01838 12.0152 2.47397 8.33332 2.47397C4.65142 2.47397 1.66666 6.01838 1.66666 10.3906C1.66666 14.7629 4.65142 18.3073 8.33332 18.3073Z" stroke="white" stroke-linecap="round" stroke-linejoin="round"/>
</svg>
